<?xml version="1.0" encoding="iso-8859-1"?>
<!-- Generator: Adobe Illustrator 19.0.0, SVG Export Plug-In . SVG Version: 6.00 Build 0)  -->
<svg version="1.1" id="Capa_1" xmlns="http://www.w3.org/2000/svg" xmlns:xlink="http://www.w3.org/1999/xlink" x="0px" y="0px"
	 viewBox="0 0 512 512" style="enable-background:new 0 0 512 512;" xml:space="preserve">
<g>
	<g>
		<path d="M425.112,91.102c-24.409-24.409-52.954-42.861-84.843-54.843c-3.761-1.416-7.969,0.49-9.383,4.258
			c-1.416,3.767,0.491,7.968,4.258,9.384c29.931,11.247,56.733,28.576,79.664,51.506c4.513,4.513,4.513,11.857,0.001,16.369
			c-4.512,4.513-11.856,4.514-16.37,0c-78.541-78.539-206.335-78.54-284.874,0c-2.187,2.186-5.094,3.39-8.185,3.39
			c-3.092,0-5.998-1.204-8.185-3.39c-2.186-2.186-3.39-5.093-3.39-8.185c0-3.092,1.204-5.998,3.391-8.185
			C139.612,58.988,196.01,35.627,256,35.627c15.064,0,30.107,1.488,44.714,4.422c3.945,0.796,7.786-1.763,8.579-5.709
			c0.792-3.945-1.764-7.787-5.71-8.579c-15.549-3.123-31.559-4.707-47.583-4.707c-63.882,0-123.94,24.877-169.11,70.048
			c-4.939,4.939-7.659,11.505-7.659,18.49s2.72,13.551,7.658,18.49c4.938,4.937,11.505,7.657,18.49,7.657
			c6.984,0,13.55-2.72,18.49-7.658c72.858-72.858,191.405-72.858,264.265,0c10.195,10.195,26.785,10.194,36.979,0
			C435.307,117.886,435.307,101.297,425.112,91.102z"/>
	</g>
</g>
<g>
	<g>
		<path d="M387.455,145.293C352.342,110.18,305.658,90.843,256,90.843c-49.658,0-96.342,19.338-131.455,54.451
			c-4.938,4.939-7.658,11.505-7.658,18.49s2.72,13.551,7.659,18.489c4.938,4.939,11.505,7.658,18.489,7.658
			c6.985,0,13.551-2.72,18.49-7.658c25.193-25.193,58.745-39.067,94.476-39.067c35.731,0,69.284,13.874,94.476,39.067
			c4.938,4.939,11.505,7.658,18.49,7.658c6.983-0.001,13.549-2.72,18.487-7.659c4.939-4.938,7.659-11.505,7.659-18.489
			C395.113,156.799,392.393,150.232,387.455,145.293z M377.151,171.967c-2.187,2.186-5.094,3.39-8.185,3.39
			c-3.092,0-5.998-1.204-8.184-3.39c-27.946-27.945-65.159-43.336-104.782-43.336s-76.836,15.39-104.782,43.336
			c-2.186,2.186-5.092,3.39-8.184,3.39c-3.091,0-5.998-1.204-8.185-3.39c-2.186-2.186-3.39-5.093-3.39-8.184
			s1.204-5.999,3.391-8.185c32.36-32.361,75.385-50.182,121.15-50.182c45.765,0,88.79,17.822,121.15,50.182
			c2.187,2.186,3.391,5.093,3.391,8.185C380.541,166.875,379.337,169.781,377.151,171.967z"/>
	</g>
</g>
<g>
	<g>
		<path d="M348.929,201.275c-24.786-24.784-57.789-38.433-92.929-38.433s-68.142,13.649-92.926,38.434
			c-4.939,4.938-7.659,11.505-7.659,18.489c0,6.985,2.72,13.551,7.658,18.49c4.938,4.939,11.505,7.658,18.49,7.658
			c6.984,0,13.55-2.72,18.49-7.658C214.97,223.336,234.84,215.12,256,215.12c21.16,0,41.03,8.216,55.949,23.134
			c4.938,4.939,11.505,7.658,18.489,7.658c6.985,0,13.551-2.72,18.491-7.658C359.124,228.059,359.124,211.47,348.929,201.275z
			 M338.623,227.949c-2.187,2.186-5.094,3.39-8.186,3.39c-3.091,0-5.998-1.204-8.184-3.39c-17.671-17.671-41.2-27.402-66.253-27.402
			s-48.583,9.731-66.252,27.402c-2.187,2.186-5.094,3.39-8.185,3.39c-3.092,0-5.998-1.204-8.185-3.39
			c-2.186-2.186-3.39-5.092-3.39-8.185c0-3.092,1.204-5.998,3.391-8.185c22.031-22.032,51.374-34.165,82.621-34.165
			c31.249,0,60.591,12.133,82.622,34.165C343.136,216.093,343.136,223.436,338.623,227.949z"/>
	</g>
</g>
<g>
	<g>
		<path d="M448.189,295.992H63.81c-8.129,0-14.743,6.613-14.743,14.742v137.793c0,8.129,6.614,14.742,14.743,14.742h130.32
			c3.996,0.001,7.679-2.173,9.612-5.676l5.456-9.894h93.603l5.458,9.898c1.932,3.499,5.614,5.672,9.61,5.672h130.32
			c8.129,0,14.743-6.613,14.743-14.742V310.734C462.932,302.605,456.318,295.992,448.189,295.992z M448.36,448.528
			c0,0.093-0.076,0.169-0.17,0.169H319.993l-5.184-9.403c-2.098-3.804-6.099-6.167-10.443-6.167h-96.732
			c-4.344,0-8.345,2.363-10.442,6.167l-5.185,9.403H63.81v0c-0.094,0-0.17-0.076-0.17-0.169V310.734c0-0.093,0.076-0.169,0.17-0.169
			h384.38c0.094,0,0.17,0.076,0.17,0.169V448.528z"/>
	</g>
</g>
<g>
	<g>
		<path d="M494.239,315.958h-3.63v-5.223c0-23.39-19.029-42.419-42.419-42.419H63.81c-23.39,0-42.419,19.029-42.419,42.419v5.223
			h-3.63C7.968,315.958,0,323.926,0,333.719v91.824c0,9.793,7.968,17.761,17.761,17.761h3.63v5.223
			c0,23.39,19.029,42.419,42.419,42.419h41.844c4.025,0,7.287-3.262,7.287-7.286s-3.262-7.287-7.287-7.287H63.81
			c-15.355,0-27.846-12.491-27.846-27.846v-12.51V323.244v-12.51c0-15.354,12.491-27.846,27.846-27.846h384.38
			c15.355,0,27.846,12.491,27.846,27.846v12.51v112.773v12.51c0,15.354-12.491,27.846-27.846,27.846H306.026l-5.409-10.817
			c-2.399-4.801-7.224-7.784-12.592-7.784h-64.048c-5.368,0-10.194,2.983-12.592,7.782l-5.41,10.819h-63.401
			c-4.025,0-7.287,3.262-7.287,7.287c0,4.024,3.262,7.286,7.287,7.286h65.129c4.49,0,8.527-2.495,10.534-6.51l6.046-12.091h63.436
			l6.046,12.09c2.008,4.016,6.045,6.511,10.535,6.511h143.89c23.39,0,42.419-19.029,42.419-42.419v-5.223h3.63
			c9.793,0,17.761-7.968,17.761-17.761v-91.824C512,323.926,504.032,315.958,494.239,315.958z M21.391,428.731h-3.63
			c-1.758,0-3.188-1.43-3.188-3.188v-91.824c0-1.758,1.43-3.188,3.188-3.188h3.63V428.731z M497.427,425.543
			c0,1.758-1.43,3.188-3.188,3.188h-3.63v-98.2h3.63c1.758,0,3.188,1.43,3.188,3.188V425.543z"/>
	</g>
</g>
<g>
</g>
<g>
</g>
<g>
</g>
<g>
</g>
<g>
</g>
<g>
</g>
<g>
</g>
<g>
</g>
<g>
</g>
<g>
</g>
<g>
</g>
<g>
</g>
<g>
</g>
<g>
</g>
<g>
</g>
</svg>
